<?xml version="1.0" encoding="UTF-8" standalone="no"?>
<svg
  xmlns="http://www.w3.org/2000/svg" version="1.1"
  xmlns:freecad="http://www.freecadweb.org/wiki/index.php?title=Svg_Namespace"
  width="297mm" height="210mm" viewBox="0 0 297 210">
  <g id="drawing-border" style="fill:none;stroke:#000000;stroke-width:0.5">
    <rect width="287" height="185" x="5" y="20" />
  </g>
  <g id="titleblock-structure" style="fill:none;stroke:#000000;stroke-width:0.35">
    <path d="m 107,205 v-20 h 185" style="stroke-width:0.5" />
    <path d="m 107,190 h 90" />
    <path d="m 107,195 h 185" />
    <path d="m 107,200 h 185" />
    <path d="m 152,185 v 20" />
    <path d="m 197,185 v 15" />
    <path d="m 267,195 v 10" />
  </g>
  <g id="titleblock-text" style="font-size:3px;fill:#000000;font-family:tahoma">
    <text x="108" y="188.5">Avtor:</text>
    <text x="108" y="193.5" freecad:editable="AVTOR_2"><tspan></tspan></text>
    <text x="108" y="198.5" freecad:editable="AVTOR_3"><tspan></tspan></text>
    <text x="108" y="203.5">Datum:</text>
    <text x="119" y="188.5" freecad:editable="AVTOR"><tspan></tspan></text>
    <text x="122" y="203.5" freecad:editable="DATUM"><tspan></tspan></text>

    <text x="153" y="188.5">Merilo:</text>
    <text x="153" y="193.5">Material:</text>
    <text x="153" y="198.5" freecad:editable="LASTNOST_3"><tspan></tspan></text>
    <text x="153" y="203.5" freecad:editable="VIR"><tspan></tspan></text>
    <text x="167" y="188.5" freecad:editable="MERILO"><tspan>1:1</tspan></text>
    <text x="167" y="193.5" freecad:editable="MATERIAL"><tspan></tspan></text>

    <text x="198" y="189" freecad:editable="NAZIV" style="font-size:4px;font-weight:bold"><tspan>NAZIV</tspan></text>
    <text x="198" y="193.5" freecad:editable="NAZIV_2" style="font-size:4px;"><tspan></tspan></text>
    <text x="198" y="198.5" freecad:editable="ŠTEVILKA_RISBE"><tspan></tspan></text>

    <text x="268" y="198.5" freecad:editable="REVIZIJA"><tspan></tspan></text>
    <text x="268" y="203.5" freecad:editable="STRAN"><tspan>Stran 1/1</tspan></text>
  </g>
</svg>
