<?xml version="1.0" encoding="UTF-8" standalone="no"?>
<svg
  xmlns="http://www.w3.org/2000/svg" version="1.1"
  xmlns:freecad="http://www.freecadweb.org/wiki/index.php?title=Svg_Namespace"
  width="210mm" height="297mm" viewBox="0 0 210 297">
  <g id="drawing-border" style="fill:none;stroke:#000000;stroke-width:0.5">
    <rect width="185" height="287" x="20" y="5" />
  </g>
  <g id="titleblock-structure" style="fill:none;stroke:#000000;stroke-width:0.35">
    <path d="m 20,272 h 185" style="stroke-width:0.5" />
    <path d="m 20,277 h 90" />
    <path d="m 20,282 h 185" />
    <path d="m 20,287 h 185" />
    <path d="m 65,272 v 20" />
    <path d="m 110,272 v 15" />
    <path d="m 180,282 v 10" />
  </g>
  <g id="titleblock-text" style="font-size:3px;fill:#000000;font-family:tahoma">
    <text x="21" y="275.5">Avtor:</text>
    <text x="21" y="280.5" freecad:editable="AVTOR_2"><tspan></tspan></text>
    <text x="21" y="285.5" freecad:editable="AVTOR_3"><tspan></tspan></text>
    <text x="21" y="290.5">Datum:</text>
    <text x="32" y="275.5" freecad:editable="AVTOR"><tspan></tspan></text>
    <text x="35" y="290.5" freecad:editable="DATUM"><tspan></tspan></text>

    <text x="66" y="275.5">Merilo:</text>
    <text x="66" y="280.5">Material:</text>
    <text x="66" y="285.5" freecad:editable="LASTNOST_3"><tspan></tspan></text>
    <text x="66" y="290.5" freecad:editable="VIR"><tspan></tspan></text>
    <text x="80" y="275.5" freecad:editable="MERILO"><tspan>1:1</tspan></text>
    <text x="80" y="280.5" freecad:editable="MATERIAL"><tspan></tspan></text>

    <text x="111" y="276" freecad:editable="NAZIV" style="font-size:4px;font-weight:bold"><tspan>NAZIV</tspan></text>
    <text x="111" y="280.5" freecad:editable="NAZIV_2" style="font-size:4px;"><tspan></tspan></text>
    <text x="111" y="285.5" freecad:editable="ŠTEVILKA_RISBE"><tspan></tspan></text>

    <text x="181" y="285.5" freecad:editable="REVIZIJA"><tspan></tspan></text>
    <text x="181" y="290.5" freecad:editable="STRAN"><tspan>Stran 1/1</tspan></text>
  </g>
</svg>
